<svg xmlns="http://www.w3.org/2000/svg" width="482.338" height="561.214" viewBox="0 0 482.338 561.214">
  <g id="Group_178" data-name="Group 178" transform="translate(-10678.967 1818.766)">
    <g id="Group_153" data-name="Group 153" transform="translate(10678.967 -1783.873)">
      <path id="Path_258" data-name="Path 258" d="M223.256,851.946s86.357-134.479,144.66-114.152,16.219,98.515,88.11,78.708,110.906,31.8,86.357,82.357,67.509,49.519,54.357,150.64-119.235,163.67-258.634,134.481S106.652,1002.585,223.256,851.946Z" transform="translate(-136.056 -699.534)" fill="#d1d1d1"/>
      <path id="Path_259" data-name="Path 259" d="M204.713,991.344s74.123-242.95,162.425-159.412S528.273,865.653,543.1,951.49,145.415,1220.5,204.713,991.344Z" transform="translate(-121.146 -636.08)" fill="#e5e5e5"/>
      <path id="Path_260" data-name="Path 260" d="M477.318,878.375c-11.5,12.245-32.511,6.653-42.81-7.025s-9.323-34.691,2.179-46.936,29.177-11.084,39.475,2.593S488.821,866.13,477.318,878.375Z" transform="translate(-2.631 -634.879)" fill="#e2e2e2"/>
      <path id="Path_261" data-name="Path 261" d="M402.262,806.852c-16.8,17.881-47.478,9.715-62.517-10.259s-13.613-50.661,3.185-68.543,42.606-16.187,57.644,3.785S419.06,788.969,402.262,806.852Z" transform="translate(-53.482 -715.673)" fill="#e2e2e2"/>
      <path id="Path_262" data-name="Path 262" d="M186.543,975.709c-8.948,9.526-25.293,5.176-33.3-5.464s-7.253-26.99,1.7-36.515,22.7-8.623,30.709,2.017S195.491,966.184,186.543,975.709Z" transform="translate(-147.693 -545.275)" fill="#e2e2e2"/>
    </g>
    <g id="Group_177" data-name="Group 177" transform="translate(10745.636 -1818.766)">
      <ellipse id="Ellipse_33" data-name="Ellipse 33" cx="188.029" cy="28.316" rx="188.029" ry="28.316" transform="translate(0 504.582)" fill="#ecedeb"/>
      <g id="Group_176" data-name="Group 176" transform="translate(57.193 0)">
        <path id="Path_321" data-name="Path 321" d="M106.745,316.6s26.821.874,48.129,8.3,41.151,17.912,42.622,26.212-12.86,37.135-20.576,54.175-30.129,44.561-30.129,44.561-19.84,26.652-19.84,34.515,1.47,16.166,1.1,20.1-6.613,6.552-7.716,3.932-7.716-28.835-11.022-38.009-9.554-15.292-6.247-18.349,18.372-7.866,19.473-8.737,24.617-28.835,28.291-41.506,11.757-34.075,11.757-34.075-32.331.871-39.679-1.312-16.9-13.98-21.311-29.272S100.13,316.6,106.745,316.6Z" transform="translate(-23.86 -92.345)" fill="#eaa888"/>
        <path id="Path_322" data-name="Path 322" d="M154.874,324.9c-21.309-7.426-48.129-8.3-48.129-8.3-6.615,0-9.554,5.243-5.145,20.534s13.961,27.086,21.311,29.272,39.681,1.309,39.681,1.309-.648,1.721-1.644,4.42c2.927,2.9,8.855,7.648,16.708,8.251,3.612.277,7.741-.812,11.7-2.425,5-11.566,8.951-22.3,8.145-26.847C196.026,342.814,176.185,332.328,154.874,324.9Z" transform="translate(-23.86 -92.345)" fill="#b85955"/>
        <path id="Path_323" data-name="Path 323" d="M81.534,333.972l13.372,68.279h17.305L99.626,332.1Z" transform="translate(-46.922 -65.756)" fill="#decbb6"/>
        <path id="Path_324" data-name="Path 324" d="M77.4,357.522l20.452,86.987,50.854,5.661-22.537-96.387S112.8,344.429,77.4,357.522Z" transform="translate(-52.228 -34.122)" fill="#57557a"/>
        <path id="Path_325" data-name="Path 325" d="M92.183,325.935s-15.924-4.385-19.071,7.773,16.518,18.707,25.958,20.578,25.958-2.8,27.531-7.483S104.173,320.967,92.183,325.935Z" transform="translate(-58.164 -77.653)" fill="#393762"/>
        <path id="Path_326" data-name="Path 326" d="M190.889,364.139s41.69,29.932,23.6,101.016l-69.221-27.124Z" transform="translate(34.869 -10.808)" fill="#57557a"/>
        <path id="Path_327" data-name="Path 327" d="M200.912,381.668,158.436,472.4l-17.305-10.289,49.556-110.369Z" transform="translate(29.564 -32.078)" fill="#decbb6"/>
        <path id="Path_328" data-name="Path 328" d="M309.437,520.392l18.094-88.855s-108.553-51.444-240.7-50.509l-9.44,48.639,18.879,12.158L66.376,497.009l7.866,25.253S152.118,506.363,309.437,520.392Z" transform="translate(-66.376 18.135)" fill="#393762"/>
        <path id="Path_329" data-name="Path 329" d="M181.023,439.781c0-6.2-4.227-11.222-9.44-11.222s-9.44,5.023-9.44,11.222S166.371,451,171.584,451,181.023,445.979,181.023,439.781Z" transform="translate(56.533 99.68)" fill="#57557a"/>
        <path id="Path_330" data-name="Path 330" d="M85.255,439.781c0-6.2-4.227-11.222-9.44-11.222s-9.44,5.023-9.44,11.222S70.6,451,75.816,451,85.255,445.979,85.255,439.781Z" transform="translate(-66.376 99.68)" fill="#57557a"/>
        <path id="Path_331" data-name="Path 331" d="M232.875,287.429c3.432-9.25,5.891-24.192,2-32.744-4.777-10.486-14.7-20.532-31.6-18.349,0,0-11.022.437-18.372,13.543s-3.674,27.523-1.1,34.078,7.348,13.106,4.409,17.475-15.8,14.854-15.8,14.854-14.331-5.68-29.027,7.866S110.316,373.08,103.336,387.5,90.476,420.7,84.6,436.866s-8.818,29.272-.368,41.941,21.676,18.349,21.676,18.349,26.088,32.766,33.436,41.069,12.86,11.357,13.228,21.406-8.818,38.009-7.35,51.989,1.838,38.446,2.573,51.552-5.512,32.332-3.306,35.389,25.718,6.992,34.169,8.3,20.208.437,23.147-3.931-3.674-5.68-10.654-10.923S170.573,675.844,169.47,674.1s4.409-42.815,5.145-56.358,6.98-41.941,6.98-53.3-6.98-36.261-12.492-47.183-25.718-46.309-29.76-51.989a54.192,54.192,0,0,1-5.512-9.174s5.145-18.349,5.145-28.4,1.838-21.409,7.348-24.9a304.4,304.4,0,0,1,29.027-14.854c5.512-2.183,12.86-24.466,12.86-34.949A124.953,124.953,0,0,0,186,331.576s10.657-11.794,13.228-13.543a16.294,16.294,0,0,1,6.245-2.186s1.47,6.117,8.451,4.806c5.035-.945,9.113-11.2,12.65-19.633,1.934,1.33,4.48,2.761,5.355,1.721,1.468-1.746.368-7.863.368-10.486A30.694,30.694,0,0,1,232.875,287.429Z" transform="translate(-50.212 -230.524)" fill="#f6ba99"/>
        <path id="Path_332" data-name="Path 332" d="M162.489,459.455a65.884,65.884,0,0,0,19.062-4.684c.018-.486.043-.994.043-1.434,0-11.357-6.98-36.26-12.492-47.183s-25.718-46.309-29.76-51.989a54.192,54.192,0,0,1-5.512-9.174s4.332-15.471,5.037-25.78c-7.095,1.806-16.591,3.063-24.51,0-9.8-3.788-17.132-12.8-20.941-18.4-3.028,8.4-5.923,17-8.818,24.958-5.88,16.166-8.818,29.272-.368,41.94s21.676,18.349,21.676,18.349,26.088,32.766,33.436,41.069,12.86,11.357,13.228,21.406a55.183,55.183,0,0,1-1.267,10.744A54.521,54.521,0,0,0,162.489,459.455Z" transform="translate(-50.212 -119.425)" fill="#da5955"/>
        <path id="Path_333" data-name="Path 333" d="M194.657,239.816a18.253,18.253,0,0,0-9.332,2.555c-4.466-3.606-13.867-9.128-28.883-8.278-22.026,1.249-29.892,31.178-29.892,46.143s5.77,21.2-5.243,26.815-25.172,4.363-32.513,18.7,0,34.3,4.72,36.79,3.669,1.871,3.147-3.741-3.147-12.471,8.914-11.846,41.953-4.99,56.11-22.449.525-39.907,1.05-53.627c.32-8.406,6.549-13.991,12.41-17.065-6.138,12.737-2.425,27.344.039,33.619,1.724,4.393,4.428,8.783,5.145,12.519a11.229,11.229,0,0,0,2.571.149c5.877-.434,7.348-7.426,7.348-7.426s-1.836,1.311-4.777,0-3.674-10.486-.368-15.729,8.818,1.749,8.818,1.749a22.385,22.385,0,0,0,8.451-10.049c2.571-6.554,7.716-10.486,17.637-12.669a10.5,10.5,0,0,1,5.135-.049C220.019,246.31,210.351,237.788,194.657,239.816Z" transform="translate(-41.597 -234.005)" fill="#393762"/>
        <path id="Path_334" data-name="Path 334" d="M83.873,371.152c2.2,6.332,8.344,17.648,24.56,20.135a42.055,42.055,0,0,0,23.149-3.071,66.135,66.135,0,0,0,1.1-10.472c0-10.049,1.838-21.409,7.348-24.9a304.391,304.391,0,0,1,29.027-14.854c5.512-2.183,12.86-24.466,12.86-34.949a124.953,124.953,0,0,0-2.206-21.409,24.65,24.65,0,0,0-8.083-13.543,21.639,21.639,0,0,0-4.224-2.81c-.8.662-1.286,1.062-1.286,1.062s-14.331-5.68-29.027,7.866-33.068,48.929-40.049,63.347C92.251,347.449,87.983,359.4,83.873,371.152Z" transform="translate(-43.92 -180.577)" fill="#7eb9f5"/>
        <path id="Path_335" data-name="Path 335" d="M139.545,266.192s-5.88-2.62-20.576,11.794-16.9,32.332-12.125,39.758,26.086,4.806,35.272-4.369,11.022-25.775,9.554-33.64S139.545,266.192,139.545,266.192Z" transform="translate(-17.347 -179.12)" fill="#f6ba99"/>
        <path id="Path_336" data-name="Path 336" d="M154.591,416.1c-6.98-5.243-20.576-16.163-21.679-17.912a3.478,3.478,0,0,1-.142-1.284c-.7.13-5.368,1.108-5.368,4.344a7.445,7.445,0,0,1-1.838,5.24s-9.551-.437-13.593-1.746c-.646-.209-1.379-.472-2.135-.752-1.443,8.868-3.256,16.793-1.907,18.664,2.2,3.057,25.718,6.992,34.169,8.3s20.208.437,23.147-3.932S161.571,421.341,154.591,416.1Z" transform="translate(-13.655 45.385)" fill="#f4eee7"/>
        <path id="Path_337" data-name="Path 337" d="M137,316.111l69.221,145.911s8.652-9.354,7.079-29.929L155.874,304.887Z" transform="translate(24.259 -112.433)" fill="#393762"/>
        <g id="Group_175" data-name="Group 175" transform="translate(138.566 92.741)">
          <path id="Path_338" data-name="Path 338" d="M131.784,392.1a4.745,4.745,0,0,1-4.3-3.3c-1.075-2.821-.025-6.147,2.35-7.426l102.314-55.142,8.209-53.466c.468-3.049,2.943-5.069,5.492-4.513s4.261,3.481,3.795,6.53l-8.652,56.355a5.552,5.552,0,0,1-2.7,4.1L133.727,391.6A4.09,4.09,0,0,1,131.784,392.1Z" transform="translate(-127.06 -268.162)" fill="#393762"/>
        </g>
        <path id="Path_339" data-name="Path 339" d="M125.887,268.612s7.147-4.92,13.541,4.024,25.2,75.589,25.2,75.589,27.835-6.264,44.761-11.629,33.477-20.127,33.477-20.127,3.009-13.418,4.138-15.207,16.55-3.579,18.429-3.579,5.642,1.341,6.019,5.368-.377,3.579-.377,5.813.754,6.709-1.879,8.946-11.661,1.341-12.789,4.027-3.761,8.5-7.524,11.626-13.541,4.027-13.541,4.027-73.724,43.83-76.731,46.068-13.166-6.261-17.68-13.866-17.3-49.643-22.192-60.827-7.9-25.492-7.9-25.492" transform="translate(-9.308 -176.965)" fill="#f6ba99"/>
      </g>
    </g>
  </g>
</svg>
