<svg xmlns="http://www.w3.org/2000/svg" viewBox="0 0 24.385 30.519"><g transform="translate(-48.55 0)"><path d="M72.935,26.451,71.179,6.659a.752.752,0,0,0-.758-.689h-3.7a5.976,5.976,0,0,0-11.952,0h-3.7a.761.761,0,0,0-.758.689L48.55,26.451v.069a4.288,4.288,0,0,0,4.517,4H68.418a4.288,4.288,0,0,0,4.517-4ZM60.743,1.516A4.466,4.466,0,0,1,65.2,5.97h-8.92A4.466,4.466,0,0,1,60.743,1.516ZM68.418,29H53.067a2.787,2.787,0,0,1-3-2.451l1.693-19.06h3.007v2.66a.758.758,0,1,0,1.516,0V7.486H65.2v2.66a.758.758,0,0,0,1.516,0V7.486h3.007l1.693,19.066A2.786,2.786,0,0,1,68.418,29Z"/></g></svg>