<svg id="Group_73" data-name="Group 73" xmlns="http://www.w3.org/2000/svg" viewBox="0 0 14.029 10.686">
  <path id="Path_43" data-name="Path 43" d="M12.8,61H1.233A1.235,1.235,0,0,0,0,62.233v8.22a1.235,1.235,0,0,0,1.233,1.233H12.8a1.235,1.235,0,0,0,1.233-1.233v-8.22A1.235,1.235,0,0,0,12.8,61Zm-.17.822L7.04,67.407,1.407,61.822ZM.822,70.283V62.4l3.959,3.925Zm.581.581L5.364,66.9l1.388,1.376a.411.411,0,0,0,.58,0l1.353-1.353,3.94,3.94Zm11.8-.581-3.94-3.94,3.94-3.94Z" transform="translate(0 -61)"/>
</svg>
