<svg id="facebook" xmlns="http://www.w3.org/2000/svg" viewBox="0 0 23.162 23.162">
  <defs>
    <style>
      .cls-1 {
        fill: #4e598f;
      }

      .cls-2 {
        fill: #364270;
      }

      .cls-3 {
        fill: #fff;
      }

      .cls-4 {
        fill: #d1d1d1;
      }
    </style>
  </defs>
  <circle id="Ellipse_8" data-name="Ellipse 8" class="cls-1" cx="11.581" cy="11.581" r="11.581" transform="translate(0)"/>
  <path id="Path_25" data-name="Path 25" class="cls-2" d="M138.432,125.272l-5.455-5.456c-.09.027-.316-.078-.415-.058-2.34.39-4.6,0-6.863.624-1.092.312-1.17,1.638-1.56,2.5-.546,1.56-.468,3.275-1.17,4.757-.468,1.014-1.56,1.638-1.95,2.808-.13.488-.122,1.1-.269,1.569l5.473,5.47c.214.012.429.018.646.018a11.581,11.581,0,0,0,11.581-11.581C138.451,125.7,138.444,125.486,138.432,125.272Z" transform="translate(-115.288 -114.338)"/>
  <g id="Group_66" data-name="Group 66" transform="translate(4.952 4.952)">
    <path id="Path_26" data-name="Path 26" class="cls-3" d="M120.939,109.466h-9.685a1.786,1.786,0,0,0-1.786,1.786v9.685a1.786,1.786,0,0,0,1.786,1.786h4.776l.008-4.737h-1.231a.29.29,0,0,1-.29-.289l-.006-1.527a.291.291,0,0,1,.29-.292h1.229V114.4a2.411,2.411,0,0,1,2.573-2.645h1.254a.291.291,0,0,1,.29.29v1.288a.29.29,0,0,1-.29.29h-.769c-.831,0-.992.395-.992.974v1.277h1.825a.29.29,0,0,1,.288.324l-.181,1.527a.29.29,0,0,1-.288.256h-1.636l-.008,4.738h2.842a1.787,1.787,0,0,0,1.786-1.787v-9.685a1.786,1.786,0,0,0-1.786-1.786Z" transform="translate(-109.468 -109.466)"/>
    <path id="Path_27" data-name="Path 27" class="cls-3" d="M254.289,302.545l.008-4.737h-.02v4.737Z" transform="translate(-247.726 -289.288)"/>
  </g>
  <path id="Path_28" data-name="Path 28" class="cls-4" d="M259.2,109.466h-4.92v6.412h.012V114.4a2.411,2.411,0,0,1,2.573-2.645h1.254a.291.291,0,0,1,.29.29v1.288a.29.29,0,0,1-.29.29h-.769c-.831,0-.992.395-.992.974v1.277h1.825a.29.29,0,0,1,.288.324l-.181,1.527a.29.29,0,0,1-.288.256h-1.636l-.008,4.738H259.2a1.787,1.787,0,0,0,1.786-1.787v-9.685A1.786,1.786,0,0,0,259.2,109.466Z" transform="translate(-242.774 -104.514)"/>
</svg>
