<svg id="google-plus" xmlns="http://www.w3.org/2000/svg" viewBox="0 0 23.162 23.162">
  <defs>
    <style>
      .cls-1 {
        fill: #cf4c3c;
      }

      .cls-2 {
        fill: #ad3228;
      }

      .cls-3 {
        fill: #fff;
      }

      .cls-4 {
        fill: #d1d1d1;
      }
    </style>
  </defs>
  <circle id="Ellipse_9" data-name="Ellipse 9" class="cls-1" cx="11.581" cy="11.581" r="11.581"/>
  <path id="Path_29" data-name="Path 29" class="cls-2" d="M145.025,189.178l-1.652,1.988-3.111-3.235h-4.3l-1.74,1.884v4.067l8.352,8.357a11.6,11.6,0,0,0,8.094-7.414Z" transform="translate(-128.153 -179.428)"/>
  <path id="Path_30" data-name="Path 30" class="cls-3" d="M114.121,167.361h2.071a2.633,2.633,0,1,1-.715-2.824.285.285,0,0,0,.388,0l.761-.716a.284.284,0,0,0,0-.413,4.225,4.225,0,0,0-2.832-1.161,4.242,4.242,0,1,0,4.15,4.479c0-.028.005-.974.005-.974h-3.83a.284.284,0,0,0-.284.284v1.042a.284.284,0,0,0,.284.284Z" transform="translate(-104.517 -154.905)"/>
  <path id="Path_31" data-name="Path 31" class="cls-4" d="M319.206,215.113V214.1a.249.249,0,0,0-.249-.249H318.1a.249.249,0,0,0-.249.249v1.018h-1.017a.249.249,0,0,0-.249.249v.856a.249.249,0,0,0,.249.249h1.017v1.018a.249.249,0,0,0,.249.249h.857a.249.249,0,0,0,.249-.249v-1.018h1.018a.249.249,0,0,0,.249-.249v-.856a.249.249,0,0,0-.249-.249Z" transform="translate(-302.263 -204.172)"/>
</svg>
