<svg id="instagram_1_" data-name="instagram (1)" xmlns="http://www.w3.org/2000/svg" viewBox="0 0 23.162 23.162">
  <defs>
    <style>
      .cls-1 {
        fill: #6c27b3;
      }

      .cls-2 {
        fill: #501a96;
      }

      .cls-3 {
        fill: #fff;
      }

      .cls-4 {
        fill: #d1d1d1;
      }
    </style>
  </defs>
  <circle id="Ellipse_10" data-name="Ellipse 10" class="cls-1" cx="11.581" cy="11.581" r="11.581"/>
  <path id="Path_32" data-name="Path 32" class="cls-2" d="M133.718,125.731a19.5,19.5,0,0,1-4.278.031c-2.028-.156-4.991-1.092-6.083.78-1.754,3-.889,6.833-.48,10.227l6.1,6.094a11.582,11.582,0,0,0,10.94-10.938Z" transform="translate(-116.766 -119.717)"/>
  <g id="Group_67" data-name="Group 67" transform="translate(4.952 4.952)">
    <path id="Path_33" data-name="Path 33" class="cls-3" d="M118.776,109.468h-5.359a3.954,3.954,0,0,0-3.949,3.949v5.359a3.954,3.954,0,0,0,3.95,3.95h5.359a3.954,3.954,0,0,0,3.95-3.95v-5.359a3.954,3.954,0,0,0-3.95-3.949Zm2.616,9.308a2.616,2.616,0,0,1-2.616,2.616h-5.359a2.616,2.616,0,0,1-2.616-2.616v-5.359a2.616,2.616,0,0,1,2.616-2.616h5.359a2.616,2.616,0,0,1,2.616,2.616v5.359Z" transform="translate(-109.468 -109.468)"/>
    <path id="Path_34" data-name="Path 34" class="cls-3" d="M183.631,180.2a3.429,3.429,0,1,0,3.429,3.429,3.433,3.433,0,0,0-3.429-3.429Zm0,5.524a2.1,2.1,0,1,1,2.1-2.1,2.1,2.1,0,0,1-2.1,2.1Z" transform="translate(-177.002 -177.002)"/>
  </g>
  <g id="Group_68" data-name="Group 68" transform="translate(11.555 4.952)">
    <path id="Path_35" data-name="Path 35" class="cls-4" d="M315.42,163.433a.822.822,0,1,1-.822-.822.822.822,0,0,1,.822.822Z" transform="translate(-311.137 -160.207)"/>
    <path id="Path_36" data-name="Path 36" class="cls-4" d="M258.131,109.468h-2.705V110.8h2.705a2.616,2.616,0,0,1,2.616,2.616v5.359a2.616,2.616,0,0,1-2.616,2.616h-2.705v1.334h2.705a3.954,3.954,0,0,0,3.949-3.95v-5.359A3.954,3.954,0,0,0,258.131,109.468Z" transform="translate(-255.426 -109.468)"/>
    <path id="Path_37" data-name="Path 37" class="cls-4" d="M255.452,180.2h-.026v1.334h.026a2.1,2.1,0,0,1,0,4.19h-.026v1.334h.026a3.429,3.429,0,0,0,0-6.858Z" transform="translate(-255.426 -177.002)"/>
  </g>
</svg>
