<svg xmlns="http://www.w3.org/2000/svg" viewBox="0 0 19.673 20.723">
  <g id="Group_144" data-name="Group 144" transform="translate(12.88) rotate(41)">
    <path id="Path_255" data-name="Path 255" d="M3.237.853c-.008.008-.008.024-.016.032L2.211,3.221a.549.549,0,0,0-.008.418l.553,1.4L2.2,6.434a.588.588,0,0,0,0,.4l.553,1.4L2.2,9.632a.588.588,0,0,0,0,.4l.4,1.018A4.5,4.5,0,1,0,9,15.134a4.473,4.473,0,0,0-2.795-4.168V1.571A1.571,1.571,0,0,0,3.237.853ZM5.1,1.571v9.8a.549.549,0,0,0,.395.529,3.4,3.4,0,1,1-2,.008.531.531,0,0,0,.332-.292.573.573,0,0,0,.016-.442L3.316,9.845l.553-1.4a.588.588,0,0,0,0-.4l-.553-1.4.553-1.4a.588.588,0,0,0,0-.4l-.553-1.4.908-2.1a.463.463,0,0,1,.411-.245A.472.472,0,0,1,5.1,1.571Z"/>
    <path id="Path_256" data-name="Path 256" d="M38.8,186.337a1.437,1.437,0,1,0,1.437-1.437A1.437,1.437,0,0,0,38.8,186.337Zm1.776,0a.332.332,0,1,1-.332-.332A.334.334,0,0,1,40.576,186.337Z" transform="translate(-35.737 -170.303)"/>
  </g>
</svg>
