<svg xmlns="http://www.w3.org/2000/svg" xmlns:xlink="http://www.w3.org/1999/xlink" width="517.548" height="571.99" viewBox="0 0 517.548 571.99">
  <defs>
    <linearGradient id="linear-gradient" x1="-0.095" y1="1.192" x2="0.73" y2="0.372" gradientUnits="objectBoundingBox">
      <stop offset="0" stop-color="#fff"/>
      <stop offset="1" stop-color="#fff" stop-opacity="0"/>
    </linearGradient>
    <linearGradient id="linear-gradient-2" x1="-0.148" y1="1.062" x2="0.629" y2="0.29" xlink:href="#linear-gradient"/>
  </defs>
  <g id="Group_174" data-name="Group 174" transform="translate(-665 -622)">
    <g id="Group_173" data-name="Group 173" transform="translate(665 622)">
      <g id="Group_153" data-name="Group 153" transform="translate(0 0)">
        <path id="Path_258" data-name="Path 258" d="M227.134,859.968s92.661-143.761,155.22-122.03,17.4,105.315,94.542,84.14,119,33.991,92.661,88.041,72.437,52.936,58.325,161.037-127.939,174.967-277.514,143.763S102.018,1021.005,227.134,859.968Z" transform="translate(-133.569 -697.038)" fill="#d1d1d1"/>
        <path id="Path_259" data-name="Path 259" d="M205.139,1003.553s79.534-259.718,174.282-170.415,172.9,36.049,188.8,127.81S141.513,1248.523,205.139,1003.553Z" transform="translate(-115.472 -623.769)" fill="#e5e5e5"/>
        <path id="Path_260" data-name="Path 260" d="M480.964,882.684c-12.342,13.09-34.885,7.112-45.935-7.509s-10-37.085,2.338-50.176,31.306-11.849,42.356,2.772S493.306,869.594,480.964,882.684Z" transform="translate(28.376 -622.382)" fill="#e2e2e2"/>
        <path id="Path_261" data-name="Path 261" d="M407.585,813.145c-18.022,19.115-50.944,10.386-67.081-10.967S325.9,748.02,343.922,728.9s45.716-17.3,61.852,4.046S425.61,794.028,407.585,813.145Z" transform="translate(-33.345 -715.673)" fill="#e2e2e2"/>
        <path id="Path_262" data-name="Path 262" d="M189.379,979.062c-9.6,10.183-27.14,5.533-35.735-5.841s-7.783-28.852,1.82-39.035,24.353-9.218,32.951,2.156S198.98,968.879,189.379,979.062Z" transform="translate(-147.693 -518.92)" fill="#e2e2e2"/>
      </g>
      <g id="Group_172" data-name="Group 172" transform="translate(11.8 46.497)">
        <ellipse id="Ellipse_22" data-name="Ellipse 22" cx="236.237" cy="10.49" rx="236.237" ry="10.49" transform="translate(13.524 504.514)" fill="#e3e3e3"/>
        <g id="Group_171" data-name="Group 171">
          <g id="Group_159" data-name="Group 159">
            <path id="Path_263" data-name="Path 263" d="M416.324,759.516H184.994a3.337,3.337,0,0,0-3.013,3.569h0a3.337,3.337,0,0,0,3.013,3.571h231.33a3.337,3.337,0,0,0,3.013-3.571h0A3.337,3.337,0,0,0,416.324,759.516Z" transform="translate(-137.908 -721.377)" fill="#125a82"/>
            <path id="Path_264" data-name="Path 264" d="M378.062,777.853c11.043-17.741-.836-21.21-3.011-20.814s-4.015,4.857-4.015,4.857-3.013-2.081-4.185-1.288.336,13.677.336,13.677l-13.554,79.686c-16.755,11.121-35.255,35.1-40,41.445a6.559,6.559,0,0,1-3.345,2.428c-1.708.506-4.017.116-6.64-.66-4.685-1.388-5.1-13.034-5.1-13.034l-8.548-2.664v-1.548l-2.482.774-2.482-.774v1.548l-8.547,2.664s-.419,11.646-5.1,13.034c-2.624.776-4.933,1.166-6.642.66a6.562,6.562,0,0,1-3.344-2.428c-4.747-6.349-23.248-30.323-40-41.445l-13.553-79.686s1.506-12.886.334-13.677-4.183,1.288-4.183,1.288-1.84-4.459-4.015-4.857-14.056,3.073-3.013,20.814c0,0-12.3,52.431,0,86.327s7.028,44.1,40.66,66.7c0,0,10.584,35.481,19.243,46.186,2.12,2.621,3.033,19.277.973,35.781h59.352c-2.061-16.5-1.149-33.159.973-35.781,8.658-10.7,19.241-46.186,19.241-46.186,33.633-22.6,28.362-32.806,40.66-66.7S378.062,777.853,378.062,777.853Z" transform="translate(-131.919 -723.708)" fill="#ffbf85"/>
            <path id="Path_265" data-name="Path 265" d="M378.062,777.853c11.043-17.741-.836-21.21-3.011-20.814s-4.015,4.857-4.015,4.857-3.013-2.081-4.185-1.288.336,13.677.336,13.677l-13.554,79.686c-16.755,11.121-35.255,35.1-40,41.445a6.559,6.559,0,0,1-3.345,2.428c-1.708.506-4.017.116-6.64-.66-4.685-1.388-5.1-13.034-5.1-13.034l-8.548-2.664v-1.548l-2.482.774-2.482-.774v1.548l-8.547,2.664s-.419,11.646-5.1,13.034c-2.624.776-4.933,1.166-6.642.66a6.562,6.562,0,0,1-3.344-2.428c-4.747-6.349-23.248-30.323-40-41.445l-13.553-79.686s1.506-12.886.334-13.677-4.183,1.288-4.183,1.288-1.84-4.459-4.015-4.857-14.056,3.073-3.013,20.814c0,0-12.3,52.431,0,86.327s7.028,44.1,40.66,66.7c0,0,10.584,35.481,19.243,46.186,2.12,2.621,3.033,19.277.973,35.781h59.352c-2.061-16.5-1.149-33.159.973-35.781,8.658-10.7,19.241-46.186,19.241-46.186,33.633-22.6,28.362-32.806,40.66-66.7S378.062,777.853,378.062,777.853Z" transform="translate(-131.919 -723.708)" fill="#ffbf85"/>
            <path id="Path_266" data-name="Path 266" d="M230.516,861.053a88.029,88.029,0,0,0-9.125-7.081l-13.553-79.686s1.506-12.886.334-13.677-4.183,1.288-4.183,1.288-1.84-4.459-4.015-4.857-14.056,3.073-3.013,20.814c0,0-12.3,52.431,0,86.327,11.348,31.275,7.763,42.39,33.555,61.673Z" transform="translate(-131.919 -723.708)" fill="#ffbf85"/>
            <path id="Path_267" data-name="Path 267" d="M232.242,889.377c.109.118.217.22.3.311h-.337Z" transform="translate(-106.289 -600.55)" fill="#f79f57"/>
            <path id="Path_268" data-name="Path 268" d="M266.318,837.938a1.677,1.677,0,0,0,.251.066v.012c-3.189,7.776-9.034,14.117-15.78,14.478V821.283l1.882-.594v1.548l8.544,2.668S261.627,836.547,266.318,837.938Z" transform="translate(-94.592 -664.46)" fill="#f79f57"/>
            <g id="Group_154" data-name="Group 154" transform="translate(134.467 107.073)">
              <path id="Path_269" data-name="Path 269" d="M276.84,808.64a20.26,20.26,0,0,0-17.248-13.33c-.329-.037-.67-.066-1.014-.085h0c-.346.019-.68.048-1.01.085a20.265,20.265,0,0,0-17.247,13.33c-5.469,2.589-1.431,22.98-1.431,22.98l18.678.042v.006h2.024v-.006h0l18.678-.042S282.307,811.228,276.84,808.64Z" transform="translate(-237.454 -795.225)" fill="#0f3854"/>
              <path id="Path_270" data-name="Path 270" d="M266.889,805.268s-1.9.72-3.4,1.114a28.043,28.043,0,0,1-14.364,0c-1.494-.394-3.893-1.114-3.893-1.114,0,3.606-4.219,11.816-4.219,11.816V827c0,9.791,6.821,19.264,15.238,19.264h.112c8.415,0,15.238-9.473,15.238-19.264v-9.915S266.889,808.874,266.889,805.268Z" transform="translate(-235.213 -785.881)" fill="#ffbf85"/>
              <path id="Path_271" data-name="Path 271" d="M266.5,827.39c-2.8,4.2-6.943,7.079-11.568,7.079h-.109c-4.615,0-8.728-2.836-11.526-7.013a37.056,37.056,0,0,0,.533-4.139c2.777,3.751,6.671,6.239,10.993,6.239h.109c4.353,0,8.27-2.539,11.045-6.33A36.612,36.612,0,0,0,266.5,827.39Z" transform="translate(-233.777 -769.172)" fill="#f79f57"/>
              <path id="Path_272" data-name="Path 272" d="M246.667,816.455c0-2.726-1.864-4.934-4.165-4.934s-4.167,2.208-4.167,4.934,1.866,4.934,4.167,4.934S246.667,819.181,246.667,816.455Z" transform="translate(-236.899 -780.063)" fill="#ffbf85"/>
              <path id="Path_273" data-name="Path 273" d="M265.929,816.455c0-2.726-1.864-4.934-4.165-4.934s-4.165,2.208-4.165,4.934,1.864,4.934,4.165,4.934S265.929,819.181,265.929,816.455Z" transform="translate(-224.772 -780.063)" fill="#ffbf85"/>
            </g>
            <path id="Path_274" data-name="Path 274" d="M386.1,982.9c-2.1-21.806-46.508-71.36-49.808-74.136-2.619-2.2-13.993-14.312-18.585-19.227H258.8c-4.594,4.915-15.966,17.026-18.585,19.227-3.3,2.776-47.707,52.33-49.808,74.136s32.4,113.005,32.4,113.005h13.8s1.2-69,.9-93.579c0,0,33.019-25.665,50.737-49.666,17.719,24,50.738,49.666,50.738,49.666-.3,24.578.9,93.579.9,93.579h13.8S388.2,1004.707,386.1,982.9Z" transform="translate(-132.661 -600.399)" fill="#0f3854"/>
            <path id="Path_275" data-name="Path 275" d="M311.641,822.379c-4.52,5.4-7.993,9.94-9.692,12.216a6.559,6.559,0,0,1-3.345,2.428c-1.652.488-3.868.137-6.386-.589-3.282,8.006-9.389,14.5-16.388,14.5s-13.106-6.492-16.388-14.5c-2.516.726-4.734,1.077-6.386.589a6.561,6.561,0,0,1-3.344-2.428c-1.7-2.276-5.174-6.818-9.692-12.216-2.338,8.511-9.881,28.68-29.967,35.389a126.161,126.161,0,0,0,15.886,12.293s10.584,35.481,19.243,46.186c2.107,2.606,3.02,19.067,1.01,35.466l.306.315h58.664l.306-.315c-2.011-16.4-1.1-32.86,1.01-35.466,8.658-10.7,19.241-46.186,19.241-46.186a126.077,126.077,0,0,0,15.888-12.293C321.521,851.059,313.98,830.89,311.641,822.379Z" transform="translate(-120.237 -662.887)" fill="#ff4f00"/>
            <path id="Path_276" data-name="Path 276" d="M261.115,829.838c-.218-.052-.425-.116-.642-.168v-.012C260.69,829.722,260.9,829.786,261.115,829.838Z" transform="translate(-88.496 -656.114)" fill="#f79f57"/>
            <path id="Path_277" data-name="Path 277" d="M234.572,996.442v16.9h-40.8c-2.573,0,18.883-16.71,26.995-16.9Z" transform="translate(-130.618 -500.933)" fill="#ff4b00"/>
            <path id="Path_278" data-name="Path 278" d="M282.158,996.442v16.9h40.8c2.573,0-18.883-16.71-26.995-16.9Z" transform="translate(-74.845 -500.933)" fill="#ff4b00"/>
            <path id="Path_279" data-name="Path 279" d="M271.456,1002.8c3.308-11.6,7.823-34.445-3.748-45.66-15.888-15.4-11.555-45.344-26.719-51.047s-32.258-40.211-39-58.747-4.574-78.426-5.03-79.541c0,0-12.3,52.43,0,86.327s7.028,44.1,40.66,66.7c0,0,10.584,35.481,19.243,46.186,2.12,2.621,3.033,19.277.973,35.78Z" transform="translate(-131.919 -713.662)" fill="#ffd0a9"/>
            <path id="Path_280" data-name="Path 280" d="M258.8,889.539c-4.594,4.915-15.966,17.026-18.585,19.227-3.3,2.776-47.707,52.33-49.808,74.136s32.4,113.005,32.4,113.005h4.408c-7.2-23.484-29.24-97.323-26.415-112.861,3.37-18.538,69.088-86.41,69.088-86.41s1.067-2.772,2.3-7.1Z" transform="translate(-132.661 -600.399)" fill="#205a7a"/>
            <path id="Path_281" data-name="Path 281" d="M256.026,892.586c-15.888-15.4-11.555-45.344-26.719-51.046a23.7,23.7,0,0,1-6.888-4.349,39.4,39.4,0,0,1-12.366,6.8,126.051,126.051,0,0,0,15.886,12.293s10.584,35.481,19.243,46.186c2.107,2.606,3.02,19.067,1.01,35.466l.306.315h13.276C263.082,926.648,267.6,903.8,256.026,892.586Z" transform="translate(-120.237 -649.106)" fill="#ff4f00"/>
            <path id="Path_282" data-name="Path 282" d="M256.023,892.586c-15.888-15.4-11.555-45.344-26.719-51.046a23.7,23.7,0,0,1-6.888-4.349,39.436,39.436,0,0,1-12.358,6.8c.108.1.21.2.321.3.269.251.546.5.826.755.341.307.693.618,1.048.927.279.243.554.484.841.73.469.4.957.8,1.452,1.209.236.195.469.388.712.583q.953.767,1.97,1.552c.27.209.554.421.833.631.513.39,1.035.782,1.572,1.177.3.226.614.45.927.678.567.411,1.152.828,1.747,1.249.287.2.57.4.865.61.888.618,1.8,1.243,2.747,1.882l.016.012s2.646,8.87,6.375,19.078q.35.959.712,1.928c.482,1.293.979,2.6,1.489,3.905s1.031,2.61,1.563,3.9a118.4,118.4,0,0,0,5.791,12.316q.42.747.838,1.444a32.035,32.035,0,0,0,2.475,3.614,2.364,2.364,0,0,1,.2.286c.01.019.021.044.033.064.052.095.1.191.155.3.016.037.033.083.049.122.044.1.088.2.13.32.018.05.034.106.052.158.041.116.08.23.119.357.021.072.042.153.064.228.033.118.067.232.1.357.024.095.047.2.07.3.028.118.057.234.085.359.024.11.047.232.07.348s.051.243.075.373.049.28.073.419c.021.122.042.239.064.365.026.162.05.334.075.5.016.114.034.222.051.338.028.193.052.4.078.6.011.1.026.2.039.3.024.214.049.438.073.662.01.1.023.195.033.3.026.251.049.51.073.768.007.081.015.156.023.238.024.288.047.583.07.882l.015.174c.023.313.044.633.064.958l.01.151c.021.346.039.7.057,1.056l0,.093q.027.559.049,1.139l0,.054c.015.4.026.8.037,1.208v.027a151.273,151.273,0,0,1-1.075,21.648l0,.017.306.315H259.77C263.078,926.648,267.594,903.8,256.023,892.586Z" transform="translate(-120.234 -649.106)" fill="#ff8b00"/>
            <path id="Path_283" data-name="Path 283" d="M321.97,853.63c3.852-8.7,8.123-87.671,8.123-87.671l-13.554,79.686c-16.755,11.121-35.255,35.1-40,41.445a6.56,6.56,0,0,1-3.345,2.428c-1.708.506-4.017.116-6.64-.66-2.475-.734-3.753-4.322-4.413-7.55l-11.721,22.119s12.7,6.384,25.093-5.452S318.12,862.328,321.97,853.63Z" transform="translate(-94.826 -715.382)" fill="#f79f57"/>
            <path id="Path_284" data-name="Path 284" d="M275.511,845.481c3.652-3.486,8.853-8.015,14.469-12.888a66.343,66.343,0,0,1-3.75-10.214c-4.52,5.4-7.993,9.94-9.692,12.216a6.559,6.559,0,0,1-3.345,2.428c-1.652.488-3.869.137-6.386-.589-3.282,8.006-9.389,14.5-16.388,14.5C250.418,850.932,263.114,857.316,275.511,845.481Z" transform="translate(-94.826 -662.887)" fill="#d3430b"/>
            <g id="Group_155" data-name="Group 155">
              <path id="Rectangle_87" data-name="Rectangle 87" d="M2.2,0h8.135a.684.684,0,0,1,.684.684V21.307a.684.684,0,0,1-.684.684H2.2a2.2,2.2,0,0,1-2.2-2.2V2.2A2.2,2.2,0,0,1,2.2,0Z" transform="translate(0 33.571)" fill="#0f3854"/>
              <rect id="Rectangle_88" data-name="Rectangle 88" width="24.155" height="87.706" rx="2.023" transform="translate(27.782 0.001)" fill="#125a82"/>
              <rect id="Rectangle_89" data-name="Rectangle 89" width="21.086" height="76.56" rx="1.766" transform="translate(6.689 5.574)" fill="#125a82"/>
              <path id="Path_285" data-name="Path 285" d="M196.138,759.8V743.664c0-2.147-1.483-3.905-3.3-3.905H175.281c-1.814,0-3.3,1.759-3.3,3.905V759.8Z" transform="translate(-144.202 -739.759)" fill="#0f3854"/>
              <path id="Path_286" data-name="Path 286" d="M180.125,757.114V746.054a3.186,3.186,0,0,0-2.878-3.407H161.917a3.186,3.186,0,0,0-2.878,3.407v11.059Z" transform="translate(-152.351 -737.072)" fill="#0f3854"/>
              <path id="Path_287" data-name="Path 287" d="M171.984,776.067v13.712c0,2.149,1.483,3.905,3.3,3.905h17.561c1.814,0,3.3-1.757,3.3-3.905V776.067Z" transform="translate(-144.202 -705.977)" fill="#0f3854"/>
              <path id="Path_288" data-name="Path 288" d="M159.039,776.067V784.7a3.188,3.188,0,0,0,2.878,3.409h15.331a3.188,3.188,0,0,0,2.878-3.409v-8.635Z" transform="translate(-152.351 -705.977)" fill="#0f3854"/>
              <path id="Path_289" data-name="Path 289" d="M170.9,742.647h-1.768v76.559H170.9a3.188,3.188,0,0,0,2.878-3.409V746.054A3.186,3.186,0,0,0,170.9,742.647Z" transform="translate(-146 -737.072)" fill="#0f3854"/>
            </g>
            <g id="Group_156" data-name="Group 156" transform="translate(273.706)">
              <path id="Rectangle_90" data-name="Rectangle 90" d="M2.2,0h8.135a.684.684,0,0,1,.684.684V21.307a.684.684,0,0,1-.684.684H2.2a2.2,2.2,0,0,1-2.2-2.2V2.2A2.2,2.2,0,0,1,2.2,0Z" transform="translate(51.937 54.137) rotate(180)" fill="#0f3854"/>
              <rect id="Rectangle_91" data-name="Rectangle 91" width="24.155" height="87.706" rx="2.023" transform="translate(24.155 87.707) rotate(180)" fill="#125a82"/>
              <rect id="Rectangle_92" data-name="Rectangle 92" width="21.086" height="76.56" rx="1.766" transform="translate(45.249 82.134) rotate(180)" fill="#125a82"/>
              <path id="Path_290" data-name="Path 290" d="M322.9,774.812v16.134c0,2.149,1.483,3.905,3.3,3.905h17.563c1.812,0,3.3-1.757,3.3-3.905V774.812Z" transform="translate(-322.902 -707.145)" fill="#0f3854"/>
              <path id="Path_291" data-name="Path 291" d="M337.731,774.812v11.057a3.187,3.187,0,0,0,2.876,3.409h15.331a3.187,3.187,0,0,0,2.878-3.409V774.812Z" transform="translate(-313.567 -707.145)" fill="#0f3854"/>
              <path id="Path_292" data-name="Path 292" d="M347.058,757.376V743.664c0-2.147-1.484-3.905-3.3-3.905H326.2c-1.814,0-3.3,1.759-3.3,3.905v13.712Z" transform="translate(-322.902 -739.759)" fill="#0f3854"/>
              <path id="Path_293" data-name="Path 293" d="M358.815,754.689v-8.635a3.185,3.185,0,0,0-2.878-3.407H340.607a3.185,3.185,0,0,0-2.876,3.407v8.635Z" transform="translate(-313.567 -737.072)" fill="#0f3854"/>
              <path id="Path_294" data-name="Path 294" d="M340.607,819.206h1.768V742.647h-1.768a3.185,3.185,0,0,0-2.876,3.407V815.8A3.187,3.187,0,0,0,340.607,819.206Z" transform="translate(-313.567 -737.072)" fill="#0f3854"/>
            </g>
            <g id="Group_157" data-name="Group 157" transform="translate(273.709 23.68)" opacity="0.27">
              <path id="Path_295" data-name="Path 295" d="M347.064,752.026H322.9v20.963h45.251V752.026Z" transform="translate(-322.904 -752.026)" fill="#fff"/>
              <path id="Path_296" data-name="Path 296" d="M347.053,766.538H322.9v11.126h45.251V766.538h-21.1Z" transform="translate(-322.904 -738.523)" fill="#fff"/>
            </g>
            <g id="Group_158" data-name="Group 158" transform="translate(6.686 23.68)" opacity="0.27">
              <path id="Path_297" data-name="Path 297" d="M183.2,752.026h-24.16v20.963h45.251V752.026Z" transform="translate(-159.038 -752.026)" fill="#fff"/>
              <path id="Path_298" data-name="Path 298" d="M183.187,766.538H159.038v11.126h45.251V766.538h-21.1Z" transform="translate(-159.038 -738.523)" fill="#fff"/>
            </g>
            <path id="Path_299" data-name="Path 299" d="M311.7,964.57c-6.984-11.229-61.278-42.332-61.278-42.332,17.719,24,50.738,49.666,50.738,49.666-.295,24.076.851,90.769.9,93.485l.085.094S318.679,975.8,311.7,964.57Z" transform="translate(-94.826 -569.975)" fill="#04273a"/>
          </g>
          <g id="Group_170" data-name="Group 170" transform="translate(276.256 103.604)">
            <g id="Group_161" data-name="Group 161" transform="translate(70.196 181.213)">
              <g id="Group_160" data-name="Group 160">
                <path id="Path_300" data-name="Path 300" d="M394,887.3s-35.421,69.416-24.3,97.967,87.533,108.88,87.533,108.88L471.628,1090l-54.183-97.6s35.421-59.533,25.919-99.614Z" transform="translate(-367.544 -887.3)" fill="#0f3854"/>
                <path id="Path_301" data-name="Path 301" d="M443.639,894.793c-1.043,13.629-9.093,79.881-68.13,98.066a80.182,80.182,0,0,1-6.355-11.641c-.114-2.3-.179-4.324-.2-6.023,0,0,74.648-19.961,73.622-82.256l.766-.405Q443.517,893.663,443.639,894.793Z" transform="translate(-366.654 -882.43)" fill="#04273a"/>
              </g>
              <path id="Path_302" data-name="Path 302" d="M445.568,992.268l3.295,16.438-39.7,11.166c-2.5.7,15.115-21.426,22.971-23.825Z" transform="translate(-341.493 -789.635)" fill="#ff4b00"/>
            </g>
            <g id="Group_163" data-name="Group 163" transform="translate(25.114 183.848)">
              <path id="Path_303" data-name="Path 303" d="M390.819,996.768v16.9h-40.8c-2.571,0,18.885-16.71,27-16.9Z" transform="translate(-333.627 -788.083)" fill="#ff4b00"/>
              <g id="Group_162" data-name="Group 162">
                <path id="Path_304" data-name="Path 304" d="M460.426,889.213l-53.331-.548-3.73,3.365c-4.594,4.917-15.968,17.027-18.585,19.227-3.3,2.776-35.545,20.972-44.271,47.406-6.746,20.439,42.778,138.725,42.778,138.725h13.8s-9.528-94-9.828-118.584C387.263,978.8,467.714,957.282,460.426,889.213Z" transform="translate(-339.878 -888.665)" fill="#125a82"/>
                <path id="Path_305" data-name="Path 305" d="M346.569,965.3c1.08-15.372,35.683-40.137,46.137-48.678,7.69-6.284,22.391-20.644,29.633-27.8l-15.243-.156-3.73,3.365c-4.594,4.917-15.968,17.027-18.585,19.227-3.3,2.776-35.545,20.972-44.271,47.406-6.746,20.439,42.778,138.725,42.778,138.725S345.487,980.675,346.569,965.3Z" transform="translate(-339.878 -888.665)" fill="#2b7ea3"/>
              </g>
            </g>
            <g id="Group_169" data-name="Group 169" transform="translate(0)">
              <g id="Group_164" data-name="Group 164" transform="translate(22.096 63.03)">
                <path id="Path_340" data-name="Path 340" d="M25.237-.627c13.938-.346,24.957,9,24.61,20.865S37.921,42.01,23.983,42.357s-24.957-9-24.61-20.865S11.3-.281,25.237-.627Z" transform="translate(3.964 50.969) rotate(-80.744)" fill="#04273a"/>
                <path id="Path_341" data-name="Path 341" d="M25.17-.8c13.9-.442,24.812,8.852,24.371,20.759S37.472,41.876,23.571,42.318-1.241,33.465-.8,21.559,11.269-.358,25.17-.8Z" transform="translate(0 49.582) rotate(-78.056)" fill="#0f3854"/>
                <path id="Path_306" data-name="Path 306" d="M363.606,845.766c0,4.728-3.236,8.562-7.229,8.562s-7.229-3.834-7.229-8.562,3.236-8.563,7.229-8.563S363.606,841.036,363.606,845.766Z" transform="translate(-331.025 -815.729)" fill="#1981af"/>
              </g>
              <path id="Path_307" data-name="Path 307" d="M422.47,828.21c-29.708-16.194-30.263,31.167-30.263,31.167-12.327,9.538-11.656,31.122-11.656,31.122s-23.2-24.966-24.616-27.063l-7.084,3.776s.906,2.193,2.454,5.693l-.684.809,3.181,4.706c7.289,15.771,21.166,42.958,31.53,46.064,14.7,4.405,22.313-17.412,22.313-17.412l4.866-17.032C429.572,883.1,439.6,837.554,422.47,828.21Z" transform="translate(-309.115 -764.205)" fill="#ffbf85"/>
              <path id="Path_308" data-name="Path 308" d="M396.9,902.247a12.873,12.873,0,0,1-11.57,2.027c-10.364-3.108-24.247-30.289-31.531-46.06l-3.178-4.71.684-.811c-1.548-3.494-2.461-5.695-2.461-5.695l.864-.444c.733.405,1.744,1.988,3.1,5.019,13.346,29.69,33.226,44.207,37.544,43.222,3.5-.811,3.1-31.466,3.1-31.466l.245.309C393.187,874.1,394.947,889.275,396.9,902.247Z" transform="translate(-309.118 -743.998)" fill="#f79f57"/>
              <g id="Group_165" data-name="Group 165" transform="translate(0 69.306)">
                <path id="Path_342" data-name="Path 342" d="M25.079-.981c13.851-.542,24.639,8.712,24.1,20.67S36.967,41.778,23.117,42.32s-24.639-8.712-24.1-20.67S11.228-.439,25.079-.981Z" transform="matrix(0.257, -0.966, 0.966, 0.257, 4.979, 51.129)" fill="#04273a"/>
                <path id="Path_343" data-name="Path 343" d="M21.978-1.406C34.115-2.182,43.326,8.27,42.549,21.94S31.3,47.321,19.166,48.1-2.182,38.422-1.406,24.752,9.84-.629,21.978-1.406Z" transform="matrix(0.923, -0.386, 0.386, 0.923, 0, 19.55)" fill="#0f3854"/>
                <path id="Path_309" data-name="Path 309" d="M363.645,838.544a27.8,27.8,0,0,1,4.318,13.3L344.905,879.16a19.309,19.309,0,0,1-11.227-5.115Z" transform="translate(-318.668 -820.757)" fill="url(#linear-gradient)"/>
                <path id="Path_310" data-name="Path 310" d="M365.078,840.85l-30.244,35.829a27.048,27.048,0,0,1-6.176-14.44l24.231-28.725A20.318,20.318,0,0,1,365.078,840.85Z" transform="translate(-321.828 -825.437)" fill="url(#linear-gradient-2)"/>
                <ellipse id="Ellipse_27" data-name="Ellipse 27" cx="7.229" cy="8.563" rx="7.229" ry="8.563" transform="translate(20.757 24.59)" fill="#1981af"/>
              </g>
              <path id="Path_311" data-name="Path 311" d="M387.353,834.918s-.145.735-.391,2.031c-1.594,8.361-8.441,38.24-9.955,46.489-3.476,18.943,7.155,70.007,7.155,70.007l53.331.548s-11.033-42.437-2.086-65.339c12.977-33.219,3.823-77.283-33.62-68.47Z" transform="translate(-291.831 -769.596)" fill="#ff4f00"/>
              <path id="Path_312" data-name="Path 312" d="M372.31,825.821s-9.785-4.287-10.765-12.4,5.187-9.853,5.187-9.853S386.3,788.5,398.141,795.1s16.194,34.08,9,44.859C400.49,849.936,372.31,825.821,372.31,825.821Z" transform="translate(-301.191 -793.428)" fill="#0f3854"/>
              <path id="Path_313" data-name="Path 313" d="M368.111,814.509s6.065,34.949,22.65,22.9l2.888,9.1,12.378-12.635-5.048-12.662a3.8,3.8,0,0,1-.323-2.089c.3-2.386,1.15-7.114-1.38-10.808-2.18-3.181-5.92-2.029-6.9,2.84,0,0-6.556-2.318-8.9-5.564C383.473,805.585,373.492,814.509,368.111,814.509Z" transform="translate(-296.991 -782.117)" fill="#ffbf85"/>
              <path id="Path_314" data-name="Path 314" d="M389.851,831.327c-.5-.981-.983-1.971-1.411-2.9-1.96-4.245.637-14.152-.383-11.531a33.6,33.6,0,0,1-6.046,10.388l2.887,9.1Z" transform="translate(-288.241 -771.997)" fill="#f79f57"/>
              <g id="Group_168" data-name="Group 168" transform="translate(25.048 50.404)">
                <g id="Group_166" data-name="Group 166" transform="translate(19.464 97.778)">
                  <path id="Path_344" data-name="Path 344" d="M23.365-1.975c12.9-1.091,22.48,8.486,21.39,21.39S32.319,43.663,19.415,44.754s-22.48-8.486-21.39-21.39S10.461-.884,23.365-1.975Z" transform="translate(0 35.835) rotate(-45)" fill="#04273a"/>
                  <path id="Path_345" data-name="Path 345" d="M25.237-.627c13.938-.346,24.957,9,24.61,20.865S37.921,42.01,23.983,42.357s-24.957-9-24.61-20.865S11.3-.281,25.237-.627Z" transform="translate(2.536 56.769) rotate(-80.744)" fill="#0f3854"/>
                  <ellipse id="Ellipse_30" data-name="Ellipse 30" cx="7.229" cy="8.563" rx="7.229" ry="8.563" transform="translate(19.858 27.272)" fill="#1981af"/>
                </g>
                <path id="Path_315" data-name="Path 315" d="M406.406,918.82s-5.478-23.215-.844-40.786c0,0-22.015-47.5,11.356-57.928,19.249-6.017,37.349,37.433,27.384,56.653,0,0,5.239,38.056-4.959,53.7,0,0-29.219,23.287-65.346,31.47l-2.922-10.7A248.087,248.087,0,0,1,406.406,918.82Z" transform="translate(-320.173 -819.538)" fill="#ffbf85"/>
                <g id="Group_167" data-name="Group 167" transform="translate(0 107.172)">
                  <path id="Path_346" data-name="Path 346" d="M23.365-1.975c12.9-1.091,22.48,8.486,21.39,21.39s-12.436,24.249-25.34,25.34-22.48-8.486-21.39-21.39S10.461-.884,23.365-1.975Z" transform="translate(0 35.836) rotate(-45)" fill="#04273a"/>
                  <path id="Path_347" data-name="Path 347" d="M25.133-.879c13.881-.485,24.74,8.79,24.255,20.717S37.257,41.828,23.376,42.313-1.364,33.523-.879,21.6,11.253-.393,25.133-.879Z" transform="translate(1.376 54.716) rotate(-76.793)" fill="#0f3854"/>
                  <path id="Path_316" data-name="Path 316" d="M378.493,885.631a27.8,27.8,0,0,1,4.318,13.3l-23.058,27.316a19.311,19.311,0,0,1-11.227-5.116Z" transform="translate(-334.369 -865.216)" fill="url(#linear-gradient)"/>
                  <path id="Path_317" data-name="Path 317" d="M379.926,887.937l-30.244,35.829a27.047,27.047,0,0,1-6.176-14.44L367.737,880.6A20.317,20.317,0,0,1,379.926,887.937Z" transform="translate(-337.529 -869.896)" fill="url(#linear-gradient-2)"/>
                  <path id="Path_318" data-name="Path 318" d="M366.482,897.746c0,4.729-3.236,8.563-7.229,8.563s-7.229-3.834-7.229-8.563,3.236-8.563,7.229-8.563S366.482,893.017,366.482,897.746Z" transform="translate(-332.166 -861.911)" fill="#1981af"/>
                </g>
                <path id="Path_319" data-name="Path 319" d="M372.869,961.932c36.127-8.183,65.346-31.47,65.346-31.47,10.2-15.648,4.959-53.7,4.959-53.7,9.965-19.219-8.135-62.67-27.384-56.653a30.751,30.751,0,0,0-5.038,2.085c10.567,2.326,29.926,27.764,21.11,50.257,0,0,7.3,45.477-.812,54.123C423.529,934.589,372.869,961.932,372.869,961.932Z" transform="translate(-319.044 -819.538)" fill="#f79f57"/>
              </g>
              <path id="Path_320" data-name="Path 320" d="M379.664,928.648a252.739,252.739,0,0,1,21.865-18.569s-5.475-23.2-.847-40.771c0,0-10.282-22.181-6.127-39.554-.277-.541-.424-.83-.424-.83s-7.2,24.748-.717,40.134c0,0-5.41,24.767,0,36.292l-14.589,18.272C379.109,925.368,379.389,927.048,379.664,928.648Z" transform="translate(-290.247 -760.402)" fill="#d3430b"/>
            </g>
          </g>
        </g>
      </g>
    </g>
  </g>
</svg>
