<svg id="whatsapp" xmlns="http://www.w3.org/2000/svg" viewBox="0 0 23.162 23.162">
  <defs>
    <style>
      .cls-1 {
        fill: #75b73b;
      }

      .cls-2 {
        fill: #52891d;
      }

      .cls-3 {
        fill: #fff;
      }

      .cls-4 {
        fill: #d1d1d1;
      }
    </style>
  </defs>
  <circle id="Ellipse_11" data-name="Ellipse 11" class="cls-1" cx="11.581" cy="11.581" r="11.581"/>
  <path id="Path_38" data-name="Path 38" class="cls-2" d="M122.748,124.623c-.671-.168-1.659-.748-2.3-.98-2.5-.78-5.849-.156-6.785,2.73a.469.469,0,0,1-.312.078c-1.872,2.184-.624,4.835-.78,7.253a3.761,3.761,0,0,1-1.078,2.243l4.853,4.848a11.588,11.588,0,0,0,13.1-9.476Z" transform="translate(-106.451 -117.755)"/>
  <g id="Group_69" data-name="Group 69" transform="translate(4.952 4.898)">
    <path id="Path_39" data-name="Path 39" class="cls-3" d="M115.772,108.284a6.631,6.631,0,0,0-5.583,9.632l-.7,3.416a.258.258,0,0,0,.312.3l3.347-.793a6.629,6.629,0,1,0,2.627-12.558Zm3.994,10.291a5.194,5.194,0,0,1-5.98.979l-.466-.232-2.052.486.432-2.1-.23-.45a5.195,5.195,0,0,1,.956-6.026,5.191,5.191,0,0,1,7.34,7.34Z" transform="translate(-109.467 -108.276)"/>
    <path id="Path_40" data-name="Path 40" class="cls-3" d="M188.73,188.808l-1.284-.369a.479.479,0,0,0-.474.125l-.314.32a.468.468,0,0,1-.508.107,6.854,6.854,0,0,1-2.211-1.95.468.468,0,0,1,.037-.519l.274-.355a.479.479,0,0,0,.059-.486l-.54-1.222a.479.479,0,0,0-.748-.171,2.159,2.159,0,0,0-.835,1.274c-.091.9.295,2.034,1.754,3.4,1.685,1.573,3.035,1.781,3.914,1.568a2.158,2.158,0,0,0,1.148-1,.479.479,0,0,0-.271-.718Z" transform="translate(-178.884 -180.742)"/>
  </g>
  <g id="Group_70" data-name="Group 70" transform="translate(4.977 6.682)">
    <path id="Path_41" data-name="Path 41" class="cls-4" d="M121.156,147.708l-1.005,1.03c.051.047.1.095.152.144a5.191,5.191,0,0,1-5.98,8.319l-.466-.232-2.052.486.042-.206-1.817,1.863a.258.258,0,0,0,.3.17l3.347-.793a6.629,6.629,0,0,0,7.476-10.782Z" transform="translate(-110.028 -147.708)"/>
    <path id="Path_42" data-name="Path 42" class="cls-4" d="M224.048,268.586l-1.284-.369a.479.479,0,0,0-.474.125l-.314.32a.468.468,0,0,1-.508.107,5.858,5.858,0,0,1-1.411-1.036l-.893.915.093.088c1.685,1.573,3.035,1.781,3.914,1.568a2.158,2.158,0,0,0,1.148-1A.479.479,0,0,0,224.048,268.586Z" transform="translate(-214.227 -262.303)"/>
  </g>
</svg>
